<svg xmlns="http://www.w3.org/2000/svg" viewBox="292 122 620 1007"><path fill="#fff" fill-rule="evenodd" d="M 718.6 129.7 C 714.8 131.6, 712.1 132.2, 707.3 132.2 C 701.3 132.2, 700.7 132.4, 697.5 135.6 C 695.6 137.5, 693.7 139, 693.2 139 C 692.7 139, 691.5 139.9, 690.5 141 C 689.5 142.1, 687.6 143, 686.3 143 C 684.7 143, 683.3 144.1, 681.9 146.5 C 680.7 148.4, 679.2 150, 678.4 150 C 676.7 150, 673.6 154.6, 674.5 156.0 C 675.1 156.9, 668.3 164.0, 666.8 164.0 C 665.5 164.0, 664.9 168.0, 665.9 169.9 C 667.3 172.5, 666.0 175.8, 663.0 177.3 C 660.0 178.8, 659.1 184.0, 661.4 186.0 C 663.5 187.6, 663.4 189.9, 661.3 192.2 C 659.6 194.1, 659.6 194.3, 661.3 197.2 C 662.2 198.8, 663 201.3, 663 202.6 C 663 203.9, 663.5 205.9, 664 207.0 C 664.5 208.1, 665.5 209.9, 666 211.0 C 666.5 212.1, 667 213.5, 667 214.2 C 667 214.8, 668.7 218.8, 670.9 222.9 C 673.0 227.1, 675.1 232.0, 675.5 233.7 C 675.8 235.5, 676.5 237.2, 677.0 237.5 C 677.9 238.0, 675.3 246.7, 673.1 250.9 C 671.3 254.1, 666.4 256.3, 664.0 255.0 C 662.9 254.4, 661.5 254.2, 660.9 254.5 C 660.4 254.9, 651.0 255.5, 640.1 255.9 C 621.4 256.7, 620.0 256.9, 614.4 259.5 C 606.4 263.2, 604.5 263.7, 591.4 265.5 C 559.8 269.9, 539.1 282.8, 517.3 311.5 C 509.6 321.7, 509.6 321.7, 496 329.0 C 480.4 337.4, 475.4 341.1, 454 360.5 C 412.7 397.9, 405.0 407.0, 401.1 423.7 C 399.2 431.6, 400.6 434.4, 412.5 446.8 C 418.2 452.7, 424.3 459.5, 426.1 462.0 C 434.2 473.3, 460.6 496.5, 474 504.0 C 476.1 505.2, 470.5 511, 467.3 511 C 460.5 511, 455.8 516.2, 454.9 524.5 C 454.4 529.8, 453.7 531.6, 450.6 535.3 C 444.2 543.2, 437.4 560.6, 435.5 574.1 C 435.0 577.6, 435.3 579.9, 437.0 583.7 C 438.7 587.7, 438.9 589.2, 438.0 591.4 C 436.4 595.7, 436.8 601.7, 439.5 612.8 C 442.4 624.9, 443.0 626.3, 447.8 631.3 C 450.7 634.2, 451.4 635.7, 451.2 638.4 C 451.1 640.3, 451.9 644.3, 453.0 647.4 C 455.1 652.8, 455.1 653.3, 453.6 662.7 C 451.5 675.8, 448.3 704.6, 447.1 720 C 446.6 726.9, 445.6 734.6, 445.0 737.2 C 441.8 749.9, 449.3 752.7, 471.4 747.0 C 477.9 745.3, 483.5 744.2, 484.0 744.5 C 485.9 745.7, 492.2 767.0, 491.3 769.4 C 490.4 772.2, 482.9 778.3, 465.5 790.8 C 431.2 815.3, 420.8 828.1, 411.0 858.0 C 408.9 864.3, 400.9 884.6, 393.2 903 C 374.9 946.9, 375.4 945.7, 373.7 946.7 C 372.4 947.4, 368.2 956.3, 358.6 978.6 C 355.0 987.1, 351.7 989.7, 343.6 990.2 C 337.7 990.6, 336.4 991.0, 334.4 993.3 C 332.0 996.1, 331.9 996.8, 330.1 1010.8 C 329.0 1019.1, 329.0 1019.2, 323.6 1024.3 C 318.3 1029.4, 318.1 1029.9, 313.1 1045.2 C 310.3 1053.8, 308 1061.8, 308 1063.1 C 308 1064.3, 306.9 1067.6, 305.6 1070.4 C 302.2 1077.8, 297.8 1090.9, 297.2 1095.2 C 296.9 1098.3, 297.3 1099.4, 299.7 1101.9 C 304.7 1106.8, 322.0 1111.0, 337.8 1111.0 C 347.4 1111.1, 352.0 1112.4, 355.0 1115.9 C 360.2 1122.2, 371.9 1124.3, 402 1124.3 C 432.0 1124.4, 447.0 1122.1, 460.8 1115.4 C 468.6 1111.6, 471.0 1108.6, 471.0 1102.8 C 471.0 1097.0, 469.1 1092.4, 464.7 1087.8 C 461.1 1083.9, 459.2 1082.8, 450.5 1080.1 C 439.9 1076.7, 427.2 1069.9, 426.3 1067.2 C 425.1 1063.1, 423.3 1060.7, 421.0 1059.6 C 416.8 1057.8, 412 1052.0, 412 1048.9 C 412 1047.3, 410.0 1042.2, 407.6 1037.5 L 403.1 1028.8 406.9 1029.5 C 410.1 1030.0, 411.2 1029.7, 413.5 1027.7 C 416.2 1025.4, 416.3 1025.2, 414.6 1022.9 C 413.7 1021.6, 411.6 1020.0, 410.0 1019.5 L 407.0 1018.5 411.0 1012.6 C 416.7 1004.3, 416.2 999.0, 409.8 996.7 C 407.1 995.7, 407.5 994.2, 413.9 981.6 C 417.2 975.2, 419.8 969.2, 419.7 968.2 C 419.6 965.8, 427.7 954.2, 441.8 936.7 C 448.3 928.7, 457.3 917.6, 461.8 911.9 C 466.4 906.2, 472.5 899.6, 475.3 897.2 C 492.0 883.3, 497.4 876.1, 508.8 853.5 C 515.3 840.6, 516.6 838.7, 525.7 829.4 C 531.1 823.9, 539.9 816.1, 545.2 812.1 C 561.6 800.0, 569.6 788.9, 572.1 775 C 572.7 771.4, 573.9 767.4, 574.7 766 C 580.8 755.4, 581.9 747.6, 579.5 732.3 C 577.0 716.4, 576.5 701.8, 578.5 697.9 C 579.4 696.3, 580.3 695, 580.5 695 C 582.9 695, 632 741.1, 632 743.4 C 632 743.8, 633.4 745.9, 635.1 747.9 C 636.7 749.9, 639.0 752.6, 640.1 753.8 L 642.0 756.2 654.3 749.7 C 661.0 746.2, 671.4 740.3, 677.4 736.7 L 688.4 730.1 706.9 739.5 C 728.3 750.4, 738.3 756.7, 746.4 764.5 C 753.3 771.1, 753.4 769.1, 745.4 794.2 C 733.6 831.3, 732.9 855.0, 743.1 875.2 L 746.2 881.2 745.8 911.9 C 745.5 942.1, 745.5 942.5, 743.3 944.8 C 741.5 946.5, 741 948.1, 741 952.3 C 741 959.0, 739.2 973.4, 737.8 978.3 C 736.8 981.7, 736.5 981.9, 735.0 980.5 C 732.9 978.6, 730.0 978.6, 727.3 980.5 C 725.4 981.8, 725.1 983.2, 724.7 990.8 C 724.4 998.1, 723.7 1000.9, 720.6 1008.2 C 718.6 1013.1, 716.2 1020.3, 715.4 1024.2 C 714.6 1028.2, 713.3 1032.8, 712.5 1034.5 C 708.9 1041.9, 705 1052.0, 705 1053.7 C 705 1058.6, 715.6 1065.0, 727.2 1067.0 C 735.3 1068.4, 762.5 1068.7, 777.6 1067.6 C 790.1 1066.6, 802.2 1067.9, 810.1 1071.1 C 820.8 1075.3, 865.6 1076.2, 882.1 1072.6 C 890.3 1070.8, 902.4 1064.8, 904.6 1061.5 C 907.2 1057.6, 905.8 1050.5, 901.7 1046.2 C 897.3 1041.6, 896.8 1041.4, 883.9 1038.6 C 873.7 1036.4, 852.6 1030.0, 849.2 1028.1 C 848.4 1027.7, 847.3 1026.3, 846.7 1024.9 C 846.0 1023.6, 844.4 1022.4, 843.0 1022.2 C 841.6 1022.0, 839.8 1021.2, 839 1020.5 C 838.2 1019.8, 835.8 1018.5, 833.8 1017.7 C 831.7 1016.8, 830 1015.6, 830 1015 C 830 1014.4, 828.4 1013.2, 826.5 1012.4 C 824.1 1011.5, 823 1010.3, 823 1009.0 C 823 1007.9, 821.2 1005.0, 819 1002.6 C 814.8 998.1, 814.1 996.7, 816.4 997.6 C 818.5 998.4, 823.3 993.8, 822.5 991.8 C 821.4 989.0, 815.1 987.6, 809.4 988.8 C 806.7 989.4, 804.4 989.8, 804.3 989.6 C 804.2 989.5, 804.5 986.4, 805.1 982.7 C 806.0 976.9, 805.9 975.5, 804.6 973.5 C 802.7 970.6, 800.4 970.3, 797.1 972.7 L 794.7 974.3 795.4 964.9 C 795.8 959.7, 796.3 951.5, 796.5 946.5 C 796.8 936.8, 800.0 921.4, 807.5 895 C 818.6 855.6, 820.3 845.2, 821.9 810 C 822.8 792.1, 822.9 791.1, 827.1 778 C 831.1 765.3, 831.4 763.8, 831.4 752.5 C 831.5 737.3, 829.8 733.1, 820.6 726.1 C 811.0 718.8, 791.4 699.7, 785.3 691.8 C 782.2 687.8, 778.2 682.8, 776.3 680.7 C 773.9 678.0, 773.1 676.3, 773.5 674.9 C 774.0 673.4, 772.9 671.7, 768.8 667.9 C 765.9 665.2, 756.5 656.3, 748 648.2 C 739.5 640.1, 730.2 631.8, 727.3 629.7 C 724.5 627.6, 721.3 624.5, 720.2 622.6 C 719.1 620.7, 716.3 618.4, 713.9 617.1 C 711.5 615.9, 708.0 613.7, 706.2 612.1 L 702.9 609.3 708.5 603.4 C 715.5 596.1, 717.4 592.6, 716.6 588.8 C 716.1 586.5, 716.7 585.0, 719.2 581.9 C 722.3 578.0, 722.4 577.9, 721.1 572.9 C 720.0 568.6, 720.0 567.7, 721.3 566.2 C 722.2 565.3, 723.2 563.1, 723.6 561.5 C 724.0 559.7, 727.7 555.0, 732.5 550.0 C 741.0 541.1, 744.8 535.0, 749.0 523 C 751.4 516.2, 751.7 510.8, 751.0 488 C 750.6 478.3, 750.9 476.5, 754.3 464.3 C 758.7 448.7, 760.4 437.1, 759.5 427.5 L 758.9 420.5 764.6 410.6 C 776.1 390.6, 780.5 374.9, 779.8 356.5 C 779.5 347.5, 779.1 345.6, 776.2 339.8 C 773.1 333.5, 770.9 331.0, 759.6 321.6 C 756.6 319.2, 754.7 316.7, 754.3 314.8 C 753.7 311.7, 750.0 307.4, 741.6 300.2 L 736.7 296.0 739.3 293.4 C 740.7 292.0, 742.7 288.7, 743.6 286.2 C 744.6 283.6, 745.8 280.9, 746.3 280.3 C 747.7 278.3, 753.6 278.8, 763.8 281.5 C 768.9 282.9, 774.9 284, 776.9 284 C 783.6 284, 787.9 278.5, 787.7 270.3 C 787.7 266.6, 790.2 263.3, 793.4 262.8 C 795.9 262.4, 796.8 258.3, 795.0 255.0 C 794.0 253.2, 794.3 252.6, 796.4 250.9 C 799.6 248.3, 799.7 246.4, 796.5 240.9 C 793.4 235.4, 793.4 235.4, 796.8 234.5 C 803.4 232.9, 804.8 228.1, 800.1 222.8 C 798.5 221.0, 795.8 217.3, 794.1 214.5 C 788.3 205.2, 788.4 205.5, 791.0 199.9 C 793.1 195.5, 793.3 194.4, 792.3 190.2 C 790.7 183.3, 786.3 172.4, 783.5 168.2 C 781.2 164.9, 781.2 164.5, 782.7 162.8 C 783.5 161.9, 784.6 159.2, 785.0 157.0 C 785.6 153.6, 785.4 152.3, 783.4 149.4 C 782.1 147.5, 781.1 145.4, 781.3 144.7 C 781.4 144.1, 780.4 143.4, 779 143.2 C 775.8 142.7, 773.2 140.4, 772.8 137.6 C 772.5 135.7, 771.8 135.5, 766.2 135.3 C 760.9 135.2, 759.5 134.8, 757.6 132.7 C 755.5 130.4, 754.9 130.3, 747.6 130.8 C 743.4 131.0, 738.9 130.8, 737.7 130.3 C 729.3 126.4, 725.4 126.3, 718.6 129.7 M 534.5 391.2 C 522.1 400.9, 505.3 408.8, 492.9 411.0 C 487.3 412.0, 485.4 412.9, 479.5 417.7 C 475.6 420.8, 472.4 423.5, 472.3 423.9 C 472.1 424.2, 473.0 426.1, 474.3 428.2 C 475.5 430.2, 478.4 434.9, 480.7 438.7 C 483.0 442.5, 486.0 448.5, 487.5 452.1 C 489.7 457.8, 495.3 465.2, 496.3 463.9 C 496.5 463.7, 499.4 459.9, 502.8 455.5 C 506.2 451.1, 510.5 446.4, 512.5 445 C 514.4 443.6, 516.4 441.3, 517.0 439.9 C 517.6 438.4, 519.7 435.8, 521.6 433.9 C 523.5 432.1, 525 429.8, 525 428.8 C 525 427.8, 526.6 423.0, 528.6 418.2 C 535.3 401.8, 540.1 388.8, 539.8 388.1 C 539.6 387.7, 537.3 389.1, 534.5 391.2 M 697 456.3 C 693.4 460.3, 687.6 466.1, 684 469.4 C 678.6 474.2, 676.5 477.1, 671.8 486.4 C 664.4 500.8, 657.0 508.4, 651.8 507.0 C 643.3 504.7, 632.0 503.9, 623.8 505.0 C 619.2 505.7, 614.8 506.2, 614 506.2 C 613.2 506.3, 611.2 507.3, 609.7 508.6 C 607.1 510.8, 598.5 514, 595.3 514 C 594.6 514, 590.8 515.6, 587.0 517.5 C 581.5 520.3, 579.3 522.1, 576.1 526.6 C 571.6 532.9, 571.1 535.3, 573.9 538.9 L 575.7 541.2 578.9 536.1 C 583.0 529.7, 593.2 520.2, 600.1 516.2 C 610.9 510.0, 620.2 507.7, 633.5 507.7 C 643.4 507.6, 646.6 508.0, 652 509.9 C 674.6 517.8, 691.6 535.2, 697.6 556.8 L 699.3 563.0 701.8 559.4 C 704.8 555.0, 704.1 551.9, 698.4 542.5 C 692.2 532.4, 689.9 513.9, 694.0 507.3 C 695.1 505.5, 696.4 504, 696.8 504 C 697.3 504, 698.9 501.4, 700.3 498.3 C 702.7 492.8, 702.8 491.4, 703.2 470.8 C 703.5 458.8, 703.6 449.0, 703.6 449.1 C 703.5 449.2, 700.6 452.4, 697 456.3 M 501.5 523.2 C 503.1 524.5, 506.8 527.8, 509.5 530.6 C 512.3 533.5, 516.5 536.8, 518.9 538.0 C 521.3 539.2, 524.4 541.4, 525.8 542.8 C 528.4 545.5, 528.4 545.5, 526.8 543 C 526.0 541.6, 522.9 539.1, 519.9 537.4 C 516.9 535.8, 512.0 531.9, 509.0 528.8 C 505.9 525.8, 502.3 522.8, 501.0 522.1 C 499.0 521.2, 499.1 521.4, 501.5 523.2 M 528.0 546.3 C 527.9 548.8, 534.4 560.4, 538.8 565.4 C 542.4 569.5, 544.6 573.1, 546.1 577.9 C 547.3 581.5, 548.5 584.0, 548.7 583.4 C 549.5 581.0, 544.5 570.5, 540.7 566.3 C 538.5 563.9, 534.8 558.2, 532.4 553.7 C 530.0 549.2, 528.0 545.8, 528.0 546.3 M 565.8 553.8 C 565.5 554.9, 566.0 557.5, 567.0 559.6 L 568.7 563.5 569.4 559.6 C 570.0 556.4, 569.8 555.3, 568.2 553.8 C 566.3 551.9, 566.3 551.9, 565.8 553.8 M 577.9 563.8 C 580.0 566.5, 581.9 568.0, 583.3 567.9 C 584.8 567.9, 585.0 567.7, 584 567.3 C 583.2 567.0, 580.7 565.1, 578.6 563.1 L 574.6 559.5 577.9 563.8 M 699.8 576.9 L 699.5 585.9 701.9 583.7 C 704.8 581.0, 707 576.0, 707 572.0 C 707 569.3, 706.7 569.0, 705.0 569.5 C 703.8 569.9, 702.3 569.6, 701.5 569.0 C 700.4 568.1, 700.1 569.4, 699.8 576.9 M 550.5 579 C 551.4 582.2, 552.9 584.6, 558.4 591.3 C 566.5 601.3, 568.8 608, 564.0 608 C 562.5 608, 560.9 605.9, 557.6 599.3 C 553.4 591.0, 549.0 583.8, 549.0 585.1 C 549.0 586.3, 560.4 607.5, 561.4 608.2 C 562.0 608.6, 563.7 609.0, 565.2 609.0 C 567.2 609.0, 568.4 609.8, 569.4 611.8 C 576.5 625.1, 596.4 639.6, 613.6 644.0 C 623.3 646.5, 639.6 646.7, 648.9 644.4 C 663.7 640.8, 679.1 630.9, 688.4 618.9 C 691.9 614.4, 693.5 613.1, 694.3 613.9 C 696.0 615.6, 699.6 615.2, 701.1 613.3 C 702.4 611.7, 702.3 611.6, 700.8 612.9 C 699.7 613.7, 698.0 614.0, 696.5 613.6 C 693.9 612.9, 693.3 611.6, 695 610.5 C 695.5 610.2, 696 608.6, 696 607.1 C 696 605.2, 697.4 602.7, 700.1 599.6 C 703.6 595.6, 703.9 595, 702.1 595 C 701.0 595, 699.7 594.3, 699.2 593.4 C 698.5 592.2, 697.8 593.2, 696.2 597.7 C 680.7 640.2, 628.4 655.7, 592.9 628.4 C 586.5 623.5, 580.2 616.4, 576.6 609.9 C 574.2 605.8, 574.2 605.4, 575.7 603.7 C 577.2 602.1, 577.2 601.5, 576.1 598.7 C 575.3 596.9, 574.7 594.4, 574.6 593.2 C 574.5 591.8, 572.4 588.6, 569.6 585.7 C 567.0 582.8, 565.5 581.6, 566.4 583 C 570.6 589.7, 575 598.7, 575 600.6 C 575 601.7, 574.0 603.5, 572.9 604.6 C 570.8 606.5, 570.8 606.5, 569.4 604.5 C 568.6 603.4, 565.0 598.5, 561.4 593.6 C 557.7 588.8, 553.7 582.9, 552.3 580.6 C 550.7 577.9, 550.1 577.4, 550.5 579 M 811.1 992.0 C 810.0 992.6, 810.5 993.1, 813.1 993.8 C 816.0 994.6, 819.3 993.8, 817.9 992.7 C 816.8 991.6, 812.3 991.2, 811.1 992.0 M 405.5 1022.9 C 404.6 1024.5, 405.8 1026, 408.1 1026 C 409.5 1026, 410.0 1025.4, 409.8 1024.3 C 409.4 1022.3, 406.5 1021.4, 405.5 1022.9"/></svg>
