<svg xmlns="http://www.w3.org/2000/svg" viewBox="417 40 330 1096"><path fill="#fff" fill-rule="evenodd" d="M 634.3 46.5 C 621.1 50.1, 607.1 60.8, 601.2 71.8 C 594.4 84.5, 592.7 91.3, 592.5 105.5 L 592.3 118.5 597.8 128.3 C 600.8 133.6, 603.7 138, 604.2 138 C 604.6 138, 606.7 140.6, 608.7 143.8 C 610.7 146.9, 613.8 151.2, 615.7 153.3 C 618.4 156.3, 619 157.8, 619 161.4 C 619 163.8, 619.4 168.0, 619.9 170.7 C 621.2 177.1, 619.6 219.7, 617.5 238.5 C 616.1 251.3, 616.1 253.2, 617.6 261 C 618.5 265.7, 619.4 274.0, 619.7 279.6 C 620.2 288.9, 620.0 290.3, 617.2 298.6 C 615.5 303.5, 613.7 310.2, 613.0 313.5 C 611.4 321.8, 610.9 323.1, 610.1 320.0 C 609.4 317.3, 601.8 311.6, 594.0 308.0 C 590.2 306.2, 589.0 305.1, 588.8 303.1 C 588.6 301.5, 587.2 299.7, 585.0 298.2 C 582.1 296.2, 580.8 296.0, 576.0 296.5 C 569.1 297.3, 557.4 301.6, 553.7 304.7 C 552.1 305.9, 550.4 307, 550.0 307 C 548.2 307, 532.9 323.4, 532.3 325.9 C 532.0 327.3, 530.9 329.4, 529.9 330.5 C 528.9 331.6, 527.6 333.9, 526.9 335.5 C 525.4 339.5, 525.4 356.4, 527.0 359.8 C 531.1 368.7, 533.1 371.7, 538.3 377.0 C 543.1 381.8, 546.0 383.6, 555.1 387.6 C 562.3 390.7, 567.8 393.8, 570.8 396.5 L 575.4 400.6 569.6 407.5 C 564.0 414.0, 563.8 414.4, 564.5 418.4 C 565.4 423.8, 565.5 426.8, 564.6 430.5 C 564.0 432.9, 564.4 434.3, 566.6 437.5 C 568.8 440.8, 569.3 442.5, 569.1 447.0 C 568.9 451.8, 569.3 453.2, 572.0 456.8 C 573.6 459.1, 575.0 462.2, 575.0 463.7 C 575.0 468.7, 579.7 476.7, 587.2 484.7 C 595.9 493.9, 599.9 499.3, 606.9 511.5 C 609.8 516.5, 615.2 524.2, 618.9 528.8 C 625.4 536.6, 625.7 537.3, 626.3 543.4 C 627.1 552.0, 629.3 557.1, 634.6 562.0 C 637.0 564.2, 639 566.6, 639 567.1 C 639 567.6, 637.6 568.9, 635.8 569.8 C 627.5 574.2, 625.9 579.2, 631.1 584.1 C 633.6 586.5, 633.9 587.2, 633.0 589.0 C 632.4 590.1, 631.6 591, 631.1 591 C 630.7 591, 629.5 592.8, 628.5 595.1 C 627.2 598.0, 625.0 600.2, 621.3 602.6 C 618.1 604.6, 614.8 607.9, 612.9 610.8 C 604.4 624.3, 600.3 654.2, 605.0 669.2 C 607.7 677.7, 607.6 678.6, 603.3 682.3 C 598.6 686.4, 594.6 695.0, 591.9 706.9 C 590.4 713.4, 588.3 718.7, 585.3 723.9 C 583.0 728.1, 580.1 734.4, 578.9 738 C 577.3 742.7, 575.5 745.9, 572.0 749.5 C 569.4 752.3, 567.1 755.2, 566.8 756 C 565.8 758.9, 568.0 762.0, 573.0 764.5 C 579.5 767.8, 593 781.2, 593 784.3 C 593 785.6, 592.1 791.5, 591.1 797.4 C 588.1 813.8, 582.9 820.2, 561.3 834.3 C 546.2 844.2, 541.2 848.2, 534.7 855.9 C 528.5 863.2, 524.7 869.8, 521.9 878.5 C 520.4 883.0, 517.6 888.2, 514.0 893.0 C 511.0 897.2, 505.4 905.4, 501.5 911.3 C 497.6 917.1, 494.0 922.0, 493.3 922.0 C 492.6 922.0, 490.5 924.5, 488.5 927.5 C 483.8 934.6, 476.2 943, 474.5 943 C 473.8 943, 473.0 942.3, 472.6 941.5 C 471.8 939.3, 466.8 939.7, 462.8 942.3 C 459.4 944.6, 451.8 946.0, 432.8 947.9 C 425.2 948.6, 423.6 950.0, 422.5 956.4 C 421.1 964.4, 425.0 984.0, 428.9 988.4 C 430.1 989.8, 430.5 992.2, 430.5 998.9 C 430.5 1006.5, 430.2 1007.9, 428 1010.8 C 425.7 1014.0, 425.5 1014.9, 425.6 1024.8 C 425.8 1037.4, 428.6 1048.5, 435.3 1062 C 444.2 1080.2, 456.1 1085.8, 462.7 1074.9 C 465.3 1070.7, 465.7 1068.8, 467.9 1049.9 C 468.9 1041.4, 470.3 1033.0, 470.9 1031.3 C 471.5 1029.5, 472.5 1026.5, 473.1 1024.8 C 473.7 1023.0, 475.1 1019.3, 476.2 1016.5 C 478.2 1011.5, 478.4 1010.8, 480.2 1003.5 C 481.0 1000.3, 481.4 999.9, 482.1 1001.3 C 484.5 1005.5, 488.4 1001.8, 488.5 995.2 C 488.5 990.7, 488.5 990.7, 493.2 989.3 C 498.7 987.7, 503 983.2, 503 979.0 C 503 975.2, 502.1 973, 500.4 973 C 499.6 973, 499 972.5, 499 972.0 C 499 970.3, 509.0 956.0, 512.7 952.3 C 514.5 950.4, 516 948.1, 516 947.1 C 516 944.8, 529.9 931.4, 544.5 919.6 C 560.6 906.5, 571.5 896.3, 580 886.4 C 584.1 881.6, 588.4 876.7, 589.6 875.6 C 594.4 870.7, 606.0 862.4, 613.9 858.1 C 625.2 852.0, 633.2 844.2, 634.9 837.7 C 635.5 835.0, 637.2 831.1, 638.5 829.0 C 639.8 826.9, 641.9 822.2, 643.0 818.6 C 644.2 815.0, 645.5 812, 645.9 812 C 646.9 812, 648 822.0, 648 830.4 C 648 835.7, 647.5 837.2, 644.5 841.7 C 641.0 846.9, 638.9 848.7, 620.4 862.4 C 607.9 871.8, 595.6 884.4, 590.1 893.8 C 586.2 900.3, 581 913.9, 581 917.5 C 581 918.3, 578.8 922.3, 576.1 926.4 C 573.5 930.5, 568.0 939.5, 563.9 946.4 C 559.9 953.3, 556.0 959, 555.3 959 C 554.6 959, 553.1 960.9, 551.9 963.3 C 547.8 971.3, 541.4 978.7, 537.8 979.4 C 536.0 979.7, 533.3 981.2, 531.8 982.7 C 528.9 985.5, 514.7 990.5, 505.8 991.9 C 497.3 993.2, 494 998.4, 494 1010.3 C 494 1018.1, 496.1 1028.0, 498.7 1031.9 C 501.1 1035.6, 500.2 1048.0, 497.2 1051.7 C 491.5 1058.9, 491.5 1058.8, 491.5 1070.5 C 491.6 1080.3, 491.9 1082.5, 494.9 1091 C 504.8 1119.1, 516.7 1131.5, 526.4 1123.9 C 530.6 1120.6, 531.2 1117.9, 532.5 1098.5 C 533.2 1088.6, 534.3 1078.9, 535.0 1077 C 537.6 1069.9, 538.2 1068.4, 539.6 1065.7 C 540.4 1064.1, 541 1062.2, 541 1061.5 C 541 1060.8, 542.4 1057.6, 544 1054.5 C 545.6 1051.4, 547 1048.0, 547 1047.1 C 547 1046.1, 547.7 1043.9, 548.6 1042.2 C 549.9 1039.4, 550.3 1039.2, 552.1 1040.3 C 553.8 1041.3, 554.4 1041.2, 556.1 1039.1 C 558.0 1036.7, 558.1 1035.5, 556.4 1029.8 C 556.0 1028.5, 557.1 1027.8, 561.5 1026.5 C 568.8 1024.4, 574.3 1019.5, 574.3 1015.2 C 574.3 1011.3, 571.9 1008.4, 567.9 1007.6 L 564.8 1007.0 568.6 1001.8 C 570.6 998.9, 573.3 995.2, 574.4 993.5 C 575.6 991.9, 577.5 989.7, 578.8 988.7 C 580.0 987.7, 581 986.0, 581 985.0 C 581 982.4, 588.2 974.8, 604.3 960.3 C 624.1 942.7, 635.5 930.8, 648.6 914.5 C 661.2 898.7, 667.4 892.5, 677.5 885.5 C 686.2 879.4, 695.8 869.9, 699.3 863.9 C 701.6 860.1, 702.4 856.3, 704.5 840.9 C 705.9 830.8, 707.3 820.5, 707.7 818 L 708.5 813.5 714.0 812.8 C 720.9 812.0, 723.4 809.4, 722.5 803.9 C 722.1 801.5, 722.6 797.9, 723.9 793.4 C 726.0 786.4, 729 766.1, 729 759.0 C 729 756.9, 730.1 751.0, 731.4 745.8 C 737.6 722.5, 739.2 711.4, 739.5 692 C 739.6 681.8, 740.2 670.6, 740.7 667 C 742.0 658.6, 740.7 649.0, 736.9 638.6 C 735.1 633.7, 734 628.7, 734 625.5 C 734 622.4, 733.2 618.9, 732 616.5 C 729.4 611.3, 729.5 609.2, 732.8 602.9 C 735.5 597.6, 735.5 597.4, 735.1 581.5 C 734.6 557.3, 734.6 553.1, 735.5 531.5 C 736.4 506.4, 735.6 502.3, 724.1 477.1 C 721.3 471.1, 718.3 463.1, 717.4 459.4 C 716.5 455.6, 714.5 449.9, 712.9 446.8 C 709.6 440.1, 697.0 420.9, 690.5 412.4 C 688.0 409.3, 686.0 406.2, 686.0 405.6 C 686.1 403.2, 690.1 395.8, 698.0 384 C 712.5 362.0, 718.8 346.6, 724.4 319.1 C 725.7 312.7, 727.7 304.7, 728.9 301.3 C 732.2 291.4, 735.9 276.4, 735.5 274.4 C 735.3 273.3, 733.9 266.4, 732.5 259 C 728.9 240.3, 724.0 224.6, 715.3 203.7 C 708.5 187.5, 698.1 159.1, 696.1 151.3 C 695.5 149.1, 695.8 146.6, 697.1 142.7 C 698.1 139.7, 699.3 134.6, 699.6 131.3 C 700.0 128.1, 700.7 124.6, 701.3 123.6 C 701.8 122.5, 703.1 116.9, 704.1 111.1 C 705.6 102.4, 705.7 99.4, 704.8 94.5 C 703.6 87.8, 698.7 79, 696.1 79 C 695.0 79, 693.5 76.7, 691.5 72.3 C 686.3 60.3, 673.9 50.0, 660.5 46.4 C 654.1 44.6, 641.0 44.7, 634.3 46.5 M 696.0 96.7 C 696.0 101.5, 696.3 103.0, 697 102 C 698.3 100.0, 698.3 91.3, 697 90.5 C 696.4 90.1, 696.0 92.4, 696.0 96.7 M 648.3 148.7 C 642.2 149.2, 641.5 150.6, 643.1 159.6 C 644.0 165.2, 645.2 170.1, 653.5 205.2 C 658.3 225.0, 659.7 236.1, 660.5 257.5 C 661.1 272.4, 660.9 276.4, 659.6 281 C 658.8 284.0, 657.4 292.6, 656.5 300 C 653.7 324.6, 649.9 341.4, 643.6 357.0 C 642.2 360.3, 641.3 363.7, 641.6 364.5 C 642.3 366.2, 639.8 370.9, 636.6 373.9 C 634.6 375.8, 634.3 376.6, 635.1 378.2 C 636.1 380.0, 636.6 379.5, 639.8 373.9 C 642.3 369.7, 647.8 363.4, 656.1 355.2 C 668.5 343.2, 668.8 342.8, 669.4 337.7 C 671.0 325.2, 680.4 300.9, 686.4 293.5 C 692.1 286.6, 692.6 282.3, 688.9 268.3 C 686.2 258.0, 685.7 253.9, 685.0 236 C 684.5 224.7, 683.8 213.7, 683.4 211.5 C 682.0 202.1, 674.7 175.2, 672.1 169.6 C 670.6 166.2, 669.0 162.3, 668.7 160.9 C 668.0 158.1, 656.9 147.9, 654.8 148.2 C 654.1 148.3, 651.2 148.5, 648.3 148.7"/></svg>
